<?xml version="1.0" standalone="no"?>
<!DOCTYPE svg PUBLIC "-//W3C//DTD SVG 20010904//EN"
 "http://www.w3.org/TR/2001/REC-SVG-20010904/DTD/svg10.dtd">
<svg version="1.0" xmlns="http://www.w3.org/2000/svg"
 width="2661.000000pt" height="2999.000000pt" viewBox="0 0 2661.000000 2999.000000"
 preserveAspectRatio="xMidYMid meet">

<g transform="translate(0.000000,2999.000000) scale(0.100000,-0.100000)"
fill="#000000" stroke="none">
<path d="M8734 28551 c-94 -43 -144 -130 -144 -253 0 -156 97 -258 245 -258
150 0 246 104 247 265 1 118 -55 212 -148 251 -48 20 -151 17 -200 -5z m182
-96 c78 -51 77 -250 -2 -302 -62 -40 -148 -19 -192 47 -21 31 -23 44 -20 112
4 87 21 121 79 151 40 21 96 18 135 -8z"/>
<path d="M13365 28551 c-92 -43 -137 -117 -143 -234 -5 -97 14 -154 72 -211
69 -70 186 -87 282 -42 88 41 136 125 137 241 0 114 -51 206 -138 246 -54 25
-156 25 -210 0z m179 -94 c36 -24 60 -84 60 -152 0 -68 -24 -128 -60 -152 -62
-40 -148 -19 -192 47 -21 31 -23 44 -20 112 4 87 21 121 79 151 39 21 96 18
133 -6z"/>
<path d="M17025 28551 c-91 -41 -137 -116 -143 -234 -5 -97 14 -154 72 -211
47 -47 98 -66 177 -66 138 0 238 105 242 254 3 120 -46 212 -136 255 -56 27
-155 28 -212 2z m181 -96 c57 -37 77 -174 38 -251 -50 -97 -179 -95 -237 4
-33 56 -22 178 21 226 42 46 125 56 178 21z"/>
<path d="M8160 28520 l0 -40 70 0 70 0 1 -207 c1 -115 1 -211 0 -215 0 -5 24
-8 54 -8 l55 0 0 215 0 215 73 0 73 0 1 40 1 40 -199 0 -199 0 0 -40z"/>
<path d="M9200 28304 l0 -256 133 4 c111 3 138 7 172 25 87 46 134 128 135
232 0 85 -17 137 -60 182 -49 52 -114 69 -262 69 l-118 0 0 -256z m258 152
c51 -26 72 -70 72 -147 0 -110 -53 -168 -164 -176 l-66 -6 0 178 0 178 63 -5
c35 -3 78 -13 95 -22z"/>
<path d="M9875 28543 c-3 -10 -45 -121 -92 -248 -47 -126 -87 -233 -90 -237
-2 -5 22 -8 55 -8 l59 0 18 60 18 61 95 -3 96 -3 20 -57 21 -58 52 0 c29 0 53
3 53 8 0 7 -146 410 -171 475 -11 25 -16 27 -69 27 -46 0 -59 -4 -65 -17z m95
-188 c17 -49 30 -92 30 -97 0 -4 -30 -8 -66 -8 -49 0 -65 3 -61 13 2 6 17 51
33 99 15 48 29 86 31 84 2 -1 17 -43 33 -91z"/>
<path d="M10163 28553 c3 -5 39 -79 81 -167 l76 -158 0 -89 0 -89 53 0 52 0
-3 83 -3 82 85 173 86 172 -54 0 -53 0 -51 -112 c-29 -61 -54 -109 -56 -107
-2 2 -25 52 -51 112 l-48 107 -59 0 c-33 0 -57 -3 -55 -7z"/>
<path d="M12650 28305 l0 -255 50 0 50 0 0 183 0 182 120 -182 120 -183 55 0
55 0 0 255 0 255 -50 0 -50 0 -2 -180 -3 -179 -115 179 -115 180 -57 0 -58 0
0 -255z"/>
<path d="M13770 28553 c0 -5 30 -120 67 -256 l66 -248 61 3 60 3 45 167 c25
91 49 169 52 172 3 4 26 -71 51 -166 l45 -173 59 -3 59 -3 64 243 c35 134 66
249 69 256 3 10 -8 12 -49 10 l-54 -3 -40 -177 c-22 -98 -43 -178 -46 -178 -3
0 -26 80 -51 178 l-44 177 -55 3 -55 3 -54 -192 -54 -192 -18 79 c-10 44 -30
130 -45 192 l-26 112 -53 0 c-30 0 -54 -3 -54 -7z"/>
<path d="M17482 28368 c3 -184 4 -195 28 -238 34 -61 91 -90 177 -90 78 0 119
16 160 63 42 48 53 107 53 297 l0 160 -54 0 -55 0 -3 -189 c-3 -169 -5 -191
-22 -210 -25 -27 -78 -37 -117 -21 -52 22 -59 50 -59 245 l0 175 -56 0 -56 0
4 -192z"/>
<path d="M17980 28520 l0 -40 70 0 70 0 0 -215 0 -215 55 0 55 0 0 215 0 215
75 0 76 0 -3 40 -2 40 -198 0 -198 0 0 -40z"/>
<path d="M7848 27761 c-93 -30 -148 -103 -148 -194 0 -69 12 -103 53 -145 46
-48 82 -64 146 -65 130 -1 226 109 207 237 -17 114 -152 201 -258 167z"/>
<path d="M11875 27759 c-48 -14 -111 -74 -131 -124 -35 -94 3 -202 91 -253 34
-19 52 -22 112 -20 63 3 76 7 110 34 55 45 83 98 83 162 0 68 -18 109 -68 154
-58 52 -125 68 -197 47z"/>
<path d="M15895 27759 c-138 -51 -186 -209 -98 -327 48 -64 149 -92 235 -63
48 16 115 89 124 136 18 99 -19 190 -96 234 -46 26 -123 35 -165 20z"/>
<path d="M8406 27575 c-59 -22 -66 -32 -66 -87 l0 -49 47 28 c34 20 61 27 99
28 67 0 94 -22 94 -78 0 -44 -20 -66 -140 -160 -80 -63 -110 -111 -117 -185
l-6 -62 192 0 191 0 0 45 0 45 -130 0 -130 0 11 24 c6 13 52 55 102 93 111 84
147 135 147 208 0 57 -24 102 -72 138 -36 27 -165 34 -222 12z"/>
<path d="M8885 27572 c-139 -65 -152 -267 -22 -333 55 -29 146 -23 182 11 23
22 25 22 25 4 0 -43 -24 -100 -54 -130 -41 -41 -89 -51 -155 -31 -28 8 -51 14
-52 13 0 0 -2 -20 -5 -42 -5 -40 -3 -42 27 -53 57 -20 161 -14 210 12 99 53
144 157 137 321 -3 88 -7 107 -31 148 -40 69 -78 92 -157 96 -48 2 -76 -2
-105 -16z m140 -85 c28 -24 43 -85 31 -131 -7 -27 -51 -56 -86 -56 -12 0 -35
13 -51 29 -24 24 -29 38 -29 76 0 38 5 52 29 76 35 35 70 37 106 6z"/>
<path d="M9753 27570 c-91 -55 -102 -173 -24 -251 136 -137 350 54 234 209
-13 17 -37 39 -53 47 -41 21 -118 19 -157 -5z"/>
<path d="M10815 27576 c-104 -47 -127 -185 -40 -242 l26 -17 -39 -33 c-49 -41
-66 -82 -60 -138 7 -58 37 -99 93 -126 38 -18 59 -21 118 -18 134 7 192 57
192 165 0 67 -17 95 -80 134 -16 11 -25 19 -18 19 7 0 28 16 48 35 30 31 35
42 35 82 0 94 -73 153 -186 153 -32 -1 -72 -7 -89 -14z m128 -77 c30 -16 37
-28 37 -67 0 -48 -41 -86 -83 -78 -67 13 -92 95 -41 135 30 24 55 26 87 10z
m6 -244 c54 -27 65 -111 19 -151 -13 -13 -35 -19 -65 -19 -37 0 -49 5 -69 28
-70 81 20 192 115 142z"/>
<path d="M12473 27546 l-82 -41 -1 -47 c0 -56 9 -59 78 -28 l42 19 0 -219 0
-220 60 0 60 0 0 290 0 290 -37 -1 c-22 -1 -72 -19 -120 -43z"/>
<path d="M13805 27581 c-89 -37 -121 -166 -61 -245 51 -67 145 -82 217 -33 97
64 88 222 -15 271 -36 17 -107 20 -141 7z"/>
<path d="M14366 27574 c-58 -21 -66 -31 -66 -86 l0 -49 47 28 c34 20 61 27 99
28 67 0 94 -22 94 -78 0 -44 -20 -66 -140 -160 -77 -61 -111 -114 -117 -187
l-6 -60 192 0 191 0 0 45 0 45 -131 0 -131 0 19 29 c10 16 57 59 105 95 113
85 142 132 136 216 -4 52 -9 65 -38 95 -19 19 -50 40 -70 45 -49 14 -138 11
-184 -6z"/>
<path d="M14892 27564 c-90 -45 -139 -133 -149 -267 -10 -139 38 -248 124
-283 49 -21 130 -17 181 7 98 48 135 184 75 277 -33 51 -75 72 -141 72 -36 0
-59 -7 -87 -26 l-38 -25 7 43 c18 114 104 167 219 135 27 -7 27 -7 27 37 0 52
-6 56 -99 56 -52 0 -79 -6 -119 -26z m111 -294 c53 -42 40 -158 -20 -181 -79
-30 -149 64 -109 147 25 54 84 69 129 34z"/>
<path d="M16493 27546 l-82 -41 -1 -47 c0 -56 9 -59 78 -28 l42 19 0 -219 0
-220 60 0 60 0 0 290 0 290 -37 -1 c-22 -1 -72 -19 -120 -43z"/>
<path d="M16926 27574 c-58 -21 -66 -31 -66 -86 l0 -49 47 28 c34 20 61 27 99
28 67 0 94 -22 94 -78 0 -44 -20 -66 -140 -160 -77 -61 -111 -114 -117 -187
l-6 -60 192 0 191 0 0 45 0 45 -131 0 -131 0 19 29 c10 16 57 59 105 95 113
85 142 132 136 216 -4 52 -9 65 -38 95 -19 19 -50 40 -70 45 -49 14 -138 11
-184 -6z"/>
<path d="M17810 27568 c-57 -39 -75 -72 -75 -137 1 -73 33 -121 99 -146 137
-52 263 88 200 222 -38 79 -152 110 -224 61z"/>
<path d="M18386 27575 c-59 -22 -66 -32 -66 -87 l0 -49 47 28 c59 34 139 38
172 9 23 -21 28 -74 11 -106 -6 -11 -46 -46 -89 -79 -123 -94 -161 -152 -161
-245 l0 -36 190 0 190 0 0 45 0 45 -131 0 -130 0 16 28 c9 15 55 56 102 92
105 79 143 133 143 202 0 61 -23 108 -68 138 -29 20 -50 25 -111 27 -48 2 -90
-3 -115 -12z"/>
<path d="M18856 27574 c-58 -21 -66 -31 -66 -86 l0 -49 47 28 c59 34 139 38
172 9 23 -21 28 -74 11 -106 -6 -11 -46 -46 -89 -79 -123 -94 -161 -152 -161
-245 l0 -36 190 0 190 0 0 45 0 45 -130 0 -130 0 12 26 c7 14 53 56 104 95
119 88 148 134 142 219 -3 49 -10 66 -34 91 -16 17 -43 38 -61 45 -41 18 -147
17 -197 -2z"/>
<path d="M10465 27559 c-10 -31 -136 -216 -194 -284 -44 -51 -51 -65 -51 -102
l0 -43 130 0 130 0 0 -60 0 -60 55 0 55 0 0 60 0 60 35 0 c34 0 35 1 35 40 0
39 -1 40 -35 40 l-35 0 0 185 0 185 -59 0 c-52 0 -61 -3 -66 -21z m15 -244 l0
-105 -81 0 -81 0 40 48 c21 26 56 73 77 105 21 31 39 57 41 57 2 0 4 -47 4
-105z"/>
<path d="M12810 27535 l0 -45 139 0 139 0 -64 -126 c-60 -119 -103 -234 -118
-316 l-7 -38 60 0 c55 0 61 2 65 23 22 107 32 143 62 219 19 48 57 129 84 182
28 52 50 106 50 120 l0 26 -205 0 -205 0 0 -45z"/>
<path d="M7859 27300 c-69 -9 -151 -52 -195 -104 -38 -44 -74 -131 -74 -176
l0 -30 310 0 310 0 0 33 c0 114 -114 250 -230 272 -19 3 -42 8 -50 9 -8 2 -40
0 -71 -4z"/>
<path d="M11871 27298 c-119 -21 -226 -136 -245 -265 l-6 -43 315 0 315 0 0
23 c0 48 -32 127 -70 176 -68 85 -193 130 -309 109z"/>
<path d="M15847 27286 c-41 -15 -56 -25 -105 -70 -44 -41 -71 -86 -86 -144
-23 -88 -45 -82 305 -82 l309 0 0 30 c0 88 -84 211 -175 255 -51 25 -193 31
-248 11z"/>
<path d="M9783 27231 c-53 -14 -118 -58 -145 -99 -24 -36 -48 -100 -48 -129 0
-10 56 -13 245 -13 230 0 245 1 245 18 0 34 -31 108 -59 143 -51 62 -161 99
-238 80z"/>
<path d="M13789 27220 c-86 -29 -159 -125 -159 -209 0 -21 2 -21 240 -21 l240
0 0 30 c0 68 -58 153 -131 190 -53 28 -126 31 -190 10z"/>
<path d="M17827 27226 c-26 -7 -64 -26 -85 -43 -42 -33 -92 -123 -92 -165 l0
-28 240 0 240 0 0 30 c0 68 -58 153 -130 190 -50 25 -117 32 -173 16z"/>
<path d="M13191 23139 c-39 -8 -76 -34 -105 -73 -16 -20 -22 -47 -25 -104 l-4
-77 -95 -85 c-119 -106 -142 -157 -108 -235 12 -27 11 -34 -7 -65 -30 -49 -29
-126 3 -173 50 -72 50 -72 380 -69 162 2 309 8 327 13 94 30 134 169 72 252
-18 24 -19 33 -10 54 17 36 13 89 -8 131 -11 22 -56 67 -109 110 l-89 72 -5
68 c-3 37 -13 82 -22 100 -32 62 -119 98 -195 81z m89 -119 c17 -17 20 -33 20
-99 l0 -79 38 -29 c128 -96 182 -148 182 -174 0 -36 -24 -59 -61 -59 -22 0
-54 20 -126 80 l-96 79 -59 -52 c-97 -87 -149 -127 -163 -127 -7 0 -24 9 -39
21 -47 37 -36 58 84 164 l110 98 0 83 c0 74 2 84 22 98 31 22 64 20 88 -4z
m-20 -436 c0 -2 -9 -4 -21 -4 -11 0 -18 4 -14 10 5 8 35 3 35 -6z m278 -116
c16 -16 15 -73 -2 -87 -10 -8 -103 -14 -293 -18 -255 -6 -280 -5 -296 11 -22
22 -22 59 1 79 19 18 74 21 398 25 129 1 183 -1 192 -10z"/>
<path d="M12045 22905 c-98 -35 -191 -73 -205 -83 -64 -48 -84 -155 -39 -215
12 -18 31 -38 40 -45 14 -10 17 -22 13 -60 -12 -100 78 -190 176 -178 l45 6
-52 -24 c-115 -54 -136 -186 -44 -269 45 -40 92 -53 142 -39 66 18 490 172
527 191 54 27 86 89 80 153 -6 54 -28 92 -75 123 -16 11 -28 26 -25 33 4 14
-83 271 -114 332 -47 94 -122 140 -226 140 -51 -1 -96 -13 -243 -65z m337 -72
c28 -25 43 -58 94 -201 50 -139 49 -163 -3 -183 -40 -15 -70 3 -93 56 l-19 45
-53 -20 c-151 -55 -283 -100 -296 -100 -41 0 -70 73 -39 97 6 6 88 37 180 69
163 57 168 60 162 84 -17 68 -47 69 -215 10 -78 -28 -152 -50 -164 -50 -53 0
-73 75 -26 100 35 19 304 111 345 119 49 9 100 -1 127 -26z m-100 -400 c9 -10
23 -42 33 -70 9 -29 20 -53 24 -53 4 0 58 18 121 40 105 38 114 40 136 25 29
-19 32 -65 7 -87 -19 -16 -497 -188 -522 -188 -40 0 -69 74 -38 97 6 5 47 22
89 37 l76 27 -19 56 c-10 31 -19 66 -19 79 0 46 81 72 112 37z"/>
<path d="M14131 22938 c-106 -16 -191 -82 -243 -190 -55 -114 -62 -241 -18
-328 27 -56 93 -126 140 -149 67 -34 259 -93 295 -90 27 3 41 -3 67 -28 47
-44 70 -53 130 -53 59 0 106 23 134 65 29 44 164 453 164 496 0 107 -108 187
-216 160 -44 -11 -48 -11 -73 13 -28 27 -206 93 -281 105 -25 4 -69 3 -99 -1z
m191 -135 c126 -43 149 -62 126 -110 -18 -39 -45 -40 -144 -4 -47 17 -96 31
-108 31 -23 0 -76 -34 -66 -43 3 -2 48 -19 102 -36 96 -32 108 -42 108 -85 0
-54 -40 -58 -165 -16 -49 17 -90 30 -92 30 -8 0 -2 -52 8 -74 11 -24 73 -54
201 -95 40 -13 54 -37 44 -77 -12 -47 -59 -43 -218 17 -89 35 -152 94 -164
153 -19 102 25 241 92 292 40 31 97 53 138 54 16 0 78 -17 138 -37z m360 -113
l19 -26 -70 -206 c-38 -113 -74 -215 -80 -226 -15 -28 -46 -36 -82 -22 -43 18
-46 49 -15 143 14 44 25 81 23 82 -1 0 -24 10 -52 21 -43 17 -50 24 -53 51 -4
44 21 67 67 59 86 -15 82 -17 108 59 13 39 31 76 41 83 26 20 72 11 94 -18z"/>
<path d="M15110 22572 c-33 -15 -58 -40 -125 -127 -85 -111 -122 -181 -131
-245 l-7 -50 -46 0 c-124 -1 -205 -136 -144 -240 26 -45 473 -377 518 -386 76
-14 157 28 185 95 12 30 10 112 -3 141 -5 11 6 21 42 38 86 39 268 263 278
342 18 132 -120 235 -242 181 -44 -20 -50 -20 -72 -6 -20 13 -22 21 -17 55 4
21 3 55 0 75 -8 40 -55 99 -97 121 -29 14 -112 18 -139 6z m104 -113 c33 -26
34 -64 1 -109 -14 -19 -25 -35 -25 -36 0 -5 221 -166 224 -163 1 2 15 21 30
42 33 43 73 50 106 17 35 -35 25 -64 -56 -171 -118 -157 -186 -191 -302 -154
l-55 17 -18 -23 c-10 -13 -19 -28 -19 -34 0 -5 36 -36 80 -69 44 -32 82 -67
86 -78 3 -10 -2 -30 -10 -43 -31 -48 -56 -36 -286 136 -118 88 -219 169 -224
179 -11 25 -3 45 28 65 30 20 40 15 135 -57 35 -26 69 -48 75 -48 6 0 19 12
30 26 18 25 18 26 -1 52 -38 52 -53 91 -53 142 0 66 18 107 87 200 103 138
117 148 167 109z"/>
<path d="M15102 22195 c-21 -46 -15 -91 18 -129 61 -69 139 -85 191 -38 l31
28 -110 82 c-60 45 -112 82 -114 82 -3 0 -10 -11 -16 -25z"/>
<path d="M11365 22538 c-62 -34 -97 -89 -98 -154 l0 -44 -51 0 c-64 0 -102
-20 -236 -123 -128 -99 -153 -151 -116 -240 14 -35 78 -97 100 -97 8 0 15 -18
19 -52 4 -32 19 -72 39 -106 78 -128 205 -175 323 -118 67 32 285 204 310 244
14 22 31 33 55 38 108 20 176 133 140 230 -17 43 -291 395 -325 415 -34 21
-127 25 -160 7z m247 -273 c146 -191 158 -215 118 -255 -24 -24 -63 -26 -85
-3 -9 9 -35 40 -57 70 -22 29 -42 53 -45 53 -2 0 -19 -11 -38 -25 -37 -29 -78
-26 -95 5 -17 32 -11 51 26 85 l36 33 -51 68 c-28 37 -51 76 -51 86 0 10 11
30 25 44 49 49 65 37 217 -161z m-329 -39 c65 -27 115 -115 103 -179 -8 -40
-26 -61 -103 -120 -35 -27 -63 -53 -63 -58 0 -22 22 -49 39 -49 10 0 68 38
130 85 117 89 138 96 169 57 29 -37 15 -58 -99 -147 -143 -111 -166 -125 -213
-125 -107 0 -192 141 -139 231 9 15 45 50 80 76 63 48 77 75 51 101 -20 20
-32 15 -119 -53 -46 -36 -93 -65 -103 -65 -29 0 -56 29 -56 60 0 22 16 39 94
98 140 107 163 116 229 88z"/>
<path d="M12644 22005 c-156 -78 -124 -274 81 -497 27 -30 40 -50 32 -53 -6
-2 -50 -11 -97 -20 -177 -34 -583 -169 -697 -231 -137 -75 -182 -114 -387
-344 -137 -153 -158 -179 -149 -193 3 -6 1 -7 -5 -3 -17 10 -176 -229 -167
-252 3 -7 1 -11 -3 -8 -5 3 -26 -29 -46 -70 -33 -65 -36 -77 -25 -92 12 -15
12 -16 -2 -4 -15 11 -19 7 -33 -28 -9 -23 -13 -47 -10 -53 4 -7 3 -8 -1 -4
-18 16 -107 -254 -145 -436 -24 -116 -47 -276 -56 -390 l-6 -88 -32 56 c-17
31 -46 71 -65 90 -29 30 -40 35 -80 35 -143 -1 -215 -124 -166 -286 12 -42 19
-50 37 -50 30 1 44 -31 55 -125 8 -67 7 -80 -9 -99 -10 -12 -25 -46 -34 -76
-33 -114 19 -249 116 -299 16 -8 32 -25 34 -38 35 -190 86 -310 142 -333 43
-18 105 -18 130 1 21 16 48 20 40 6 -16 -26 189 -432 209 -413 5 4 5 1 1 -5
-4 -7 3 -27 16 -45 85 -122 121 -167 130 -161 7 4 8 1 3 -6 -8 -14 53 -84 66
-75 4 2 11 -1 15 -7 4 -8 3 -9 -4 -5 -37 22 1 -23 97 -118 70 -69 114 -105
122 -100 8 4 9 3 5 -4 -13 -22 247 -207 370 -263 298 -136 604 -197 1026 -206
341 -7 540 12 803 78 190 49 479 170 458 194 -5 4 -3 5 4 1 16 -9 85 33 76 47
-11 18 -12 38 -2 31 5 -3 7 -9 4 -14 -3 -5 0 -12 5 -15 20 -13 315 228 304
247 -4 6 -2 8 4 4 11 -7 111 99 207 219 77 96 197 286 190 303 -2 7 0 10 5 7
11 -7 129 230 151 303 10 36 14 40 22 25 5 -10 17 -24 25 -30 22 -18 97 -16
132 2 52 27 106 146 130 288 11 62 15 68 46 83 69 33 124 132 124 224 0 48
-24 127 -46 151 -16 18 -16 28 -6 104 13 101 25 127 55 123 28 -4 45 51 46
148 1 87 -21 128 -89 162 -99 50 -168 19 -231 -102 -18 -36 -37 -62 -41 -60
-4 3 -8 28 -8 55 0 135 -46 406 -101 598 -67 233 -169 462 -286 641 -38 58
-89 142 -113 188 -145 272 -400 491 -685 589 -38 13 -117 32 -175 43 -82 14
-305 66 -418 96 -8 2 13 37 54 91 87 114 127 199 132 280 5 73 -3 117 -20 107
-7 -4 -8 -3 -4 4 4 7 0 22 -8 34 -9 12 -16 18 -16 13 0 -6 -5 -2 -11 8 -25 42
-136 60 -223 36 -99 -27 -293 -139 -280 -161 5 -7 3 -8 -5 -3 -8 4 -23 -3 -39
-18 -62 -57 -117 -59 -168 -6 -74 78 -209 163 -299 188 -71 19 -155 14 -211
-14z m-14 -59 c0 -2 -8 -10 -17 -17 -16 -13 -17 -12 -4 4 13 16 21 21 21 13z
m1244 -14 c3 -5 -1 -9 -9 -9 -8 0 -12 4 -9 9 3 4 7 8 9 8 2 0 6 -4 9 -8z
m-1151 -697 c42 -8 121 -26 175 -40 233 -59 472 -54 657 14 102 38 236 54 393
48 81 -3 172 -10 202 -17 96 -21 194 -52 211 -66 8 -8 29 -14 46 -14 59 0 162
-40 216 -83 39 -32 63 -64 97 -128 25 -48 66 -117 91 -155 80 -119 129 -270
115 -357 -8 -47 -46 -125 -75 -151 l-21 -19 38 -41 c60 -65 155 -195 201 -274
153 -264 258 -704 236 -997 -11 -157 -25 -173 -45 -52 -46 279 -209 587 -415
785 -232 224 -478 338 -795 371 -127 14 -395 5 -570 -18 -169 -23 -485 -28
-655 -11 -427 43 -693 12 -941 -109 -289 -142 -490 -378 -599 -702 -36 -108
-88 -322 -108 -444 -13 -77 -33 -93 -50 -40 -14 44 -13 435 2 550 28 226 97
467 178 629 57 114 105 184 205 302 l78 93 -31 45 c-26 36 -32 56 -37 115 -2
38 1 91 7 116 30 120 127 269 274 421 70 74 94 92 181 134 113 55 246 96 351
110 91 11 289 4 388 -15z m1465 -1349 c395 -76 758 -368 942 -761 123 -261
133 -314 105 -542 -47 -376 -142 -653 -314 -913 -31 -47 -55 -89 -53 -93 1 -5
-2 -6 -7 -3 -5 3 -28 -19 -51 -49 -83 -108 -256 -254 -395 -333 -286 -164
-666 -257 -1090 -269 -590 -16 -1122 131 -1446 398 -25 21 -50 35 -54 31 -5
-4 -5 -2 -2 4 6 10 -69 92 -78 87 -3 -2 -5 0 -5 5 -1 15 -64 71 -74 65 -6 -3
-8 -3 -4 2 10 10 -31 67 -43 59 -5 -3 -8 -1 -7 4 2 5 -22 45 -53 88 -113 159
-174 271 -243 448 -70 178 -126 415 -126 532 0 52 77 360 119 473 35 97 97
213 155 291 59 81 212 231 285 280 67 45 216 118 291 143 134 45 381 69 580
56 545 -33 536 -33 687 -20 81 7 193 19 248 26 134 18 518 13 633 -9z m-2675
-2391 c-3 -9 -8 -14 -10 -11 -3 3 -2 9 2 15 9 16 15 13 8 -4z m3114 -200 c0
-8 -4 -12 -9 -9 -5 3 -6 10 -3 15 9 13 12 11 12 -6z m-2813 -154 c-2 -3 -12 3
-22 13 -16 17 -16 18 5 5 12 -7 20 -15 17 -18z m2806 -5 c0 -3 -4 -8 -10 -11
-5 -3 -10 -1 -10 4 0 6 5 11 10 11 6 0 10 -2 10 -4z"/>
<path d="M12380 21189 c-82 -7 -190 -29 -190 -38 1 -3 19 -15 42 -26 53 -25
79 -61 85 -118 4 -37 0 -55 -27 -106 -37 -68 -54 -79 -44 -26 8 44 -16 112
-50 144 -36 33 -89 49 -142 41 -58 -9 -93 -35 -122 -91 -28 -53 -24 -115 11
-166 25 -37 88 -73 133 -74 27 -1 25 -2 -21 -25 -27 -13 -74 -29 -104 -35 -99
-20 -177 23 -201 112 l-12 44 -24 -30 c-14 -17 -46 -72 -71 -123 -35 -70 -48
-107 -51 -151 -5 -64 9 -120 36 -144 16 -14 21 -12 62 24 156 137 339 259 533
354 317 156 599 231 917 242 233 8 426 -22 675 -103 348 -115 648 -285 895
-508 l75 -67 31 36 c69 79 57 212 -34 374 l-36 65 -9 -30 c-14 -42 -44 -71
-94 -90 -36 -14 -52 -15 -99 -6 -30 7 -76 21 -102 33 l-47 21 55 18 c32 11 66
31 82 49 98 110 12 283 -134 269 -55 -6 -92 -28 -126 -79 -20 -28 -23 -44 -20
-91 l4 -58 -22 21 c-12 12 -32 44 -44 72 -36 82 -16 156 52 197 l32 19 -26 10
c-48 18 -191 41 -293 48 -107 6 -236 -7 -326 -33 -176 -51 -243 -65 -339 -71
-127 -7 -285 9 -412 42 -197 51 -348 67 -498 54z"/>
<path d="M13980 19772 c0 -4 39 -15 86 -25 162 -34 350 -102 477 -174 61 -34
77 -39 77 -24 0 23 -200 128 -324 171 -126 44 -316 75 -316 52z"/>
<path d="M12200 19720 c-103 -22 -161 -41 -260 -87 -88 -40 -208 -113 -234
-142 -30 -33 -4 -25 76 23 132 78 297 145 471 191 37 10 67 22 67 26 0 12 -22
10 -120 -11z"/>
<path d="M14295 19332 c107 -36 185 -84 250 -154 110 -118 150 -226 142 -377
-5 -114 -31 -189 -87 -260 -46 -58 -84 -86 -159 -118 -31 -14 -44 -22 -29 -19
59 13 122 49 177 101 143 137 170 351 69 554 -59 118 -206 241 -336 281 -97
30 -119 24 -27 -8z"/>
<path d="M12055 19295 c-97 -30 -174 -82 -268 -179 -78 -80 -122 -186 -133
-315 -14 -167 64 -324 201 -400 l40 -23 -30 23 c-124 94 -185 218 -185 380 0
230 162 431 410 510 33 10 45 17 30 17 -14 0 -43 -6 -65 -13z"/>
<path d="M13989 19227 c-99 -42 -158 -96 -206 -190 -106 -209 -48 -470 131
-591 144 -98 322 -81 445 42 50 50 103 141 115 197 l6 30 -69 0 c-39 0 -74 5
-79 10 -5 6 -13 56 -16 112 -7 102 -7 102 19 119 36 24 98 23 125 -1 l21 -19
-21 53 c-41 105 -116 188 -209 232 -71 34 -189 37 -262 6z"/>
<path d="M12122 19179 c-79 -31 -164 -115 -209 -206 -34 -68 -37 -82 -41 -181
-4 -91 -1 -117 18 -171 29 -87 82 -164 145 -212 71 -53 126 -72 215 -73 61 0
86 5 133 26 110 51 208 172 232 288 7 31 6 33 -9 21 -24 -20 -125 -10 -142 14
-10 13 -14 50 -14 117 l0 99 35 15 c43 18 63 18 98 -1 27 -14 28 -14 21 8 -29
96 -107 190 -196 237 -55 30 -74 34 -148 37 -68 3 -96 -1 -138 -18z"/>
<path d="M13198 18430 c-60 -11 -113 -52 -133 -104 -25 -64 -14 -76 20 -22 35
55 82 80 150 79 75 0 141 -41 168 -103 11 -25 11 -25 14 -3 6 31 -31 94 -70
120 -40 28 -101 41 -149 33z"/>
<path d="M12453 17829 c-45 -13 -83 -62 -83 -108 0 -65 46 -138 154 -247 89
-90 112 -107 196 -147 159 -76 310 -107 515 -107 383 0 683 135 805 363 37 67
50 154 30 192 -17 31 -85 65 -131 65 -19 0 -69 -5 -111 -12 l-78 -11 0 -54 c0
-47 -4 -59 -29 -84 l-29 -29 -442 0 c-469 0 -495 2 -519 48 -6 12 -11 43 -11
70 l0 50 -63 11 c-75 13 -159 13 -204 0z"/>
<path d="M10340 21860 c-47 -25 -93 -75 -183 -201 -94 -134 -107 -158 -107
-209 0 -66 45 -130 106 -150 20 -7 36 -21 44 -39 16 -41 78 -97 131 -120 42
-19 47 -25 52 -60 7 -54 41 -99 91 -122 47 -21 80 -24 123 -9 23 8 36 7 59 -5
16 -8 37 -15 47 -15 9 0 17 -5 17 -10 0 -6 20 -33 45 -59 87 -93 201 -115 294
-57 40 25 116 121 224 279 40 58 47 76 47 116 0 76 -73 161 -137 161 -17 0
-39 16 -69 49 -24 27 -59 56 -78 65 -30 14 -34 21 -38 67 -9 90 -74 149 -165
149 -39 0 -62 6 -80 20 -14 11 -41 23 -61 26 -27 5 -49 21 -82 57 -24 28 -63
58 -85 68 -54 25 -148 24 -195 -1z m143 -94 c18 -7 46 -28 61 -47 24 -28 27
-40 23 -75 -4 -41 -13 -55 -127 -217 -30 -42 -32 -49 -19 -62 21 -21 32 -10
119 115 92 131 109 150 133 150 25 0 57 -27 57 -48 0 -8 -21 -43 -46 -79 -44
-61 -45 -65 -27 -78 10 -8 21 -15 25 -15 3 0 36 41 72 90 68 93 84 103 124 74
41 -29 29 -56 -125 -272 -81 -114 -156 -217 -167 -229 -22 -26 -68 -30 -86 -8
-23 28 -13 61 48 146 l61 84 -22 17 c-21 17 -23 16 -56 -23 -68 -81 -130 -87
-201 -20 -33 32 -40 44 -40 77 0 43 14 70 101 191 33 44 59 86 59 91 0 13 -31
25 -40 15 -4 -4 -38 -51 -75 -103 -87 -122 -104 -140 -132 -140 -25 0 -58 42
-50 62 7 20 166 239 196 272 43 47 79 55 134 32z m545 -412 c36 -31 42 -41 42
-75 0 -47 -5 -58 -76 -157 -30 -41 -54 -84 -54 -94 0 -42 37 -9 118 102 69 96
87 116 112 118 22 2 33 -3 46 -23 17 -26 16 -27 -26 -88 -24 -34 -62 -89 -84
-121 -70 -103 -107 -136 -151 -136 -82 0 -155 74 -141 144 4 17 33 70 66 118
33 47 60 93 60 102 0 37 -31 9 -100 -90 -77 -111 -94 -126 -127 -118 -23 6
-47 50 -36 67 34 58 171 242 195 262 46 39 103 35 156 -11z"/>
<path d="M15770 21829 c-108 -17 -228 -107 -277 -207 -22 -47 -27 -71 -27
-137 -1 -71 3 -88 32 -147 37 -76 130 -169 187 -188 34 -11 36 -14 28 -43 -38
-151 105 -285 233 -219 58 31 384 273 406 302 77 105 -12 270 -147 270 -34 0
-35 1 -35 40 0 90 -75 218 -164 277 -69 47 -154 65 -236 52z m164 -133 c142
-83 173 -263 64 -374 -134 -138 -317 -111 -402 60 -67 134 -3 268 159 335 44
19 129 9 179 -21z m318 -363 c10 -9 18 -30 18 -48 0 -36 5 -32 -237 -209 -73
-53 -142 -96 -154 -96 -30 0 -69 38 -69 67 0 31 20 50 164 153 65 47 137 99
160 117 46 36 90 42 118 16z"/>
<path d="M15763 21574 c-66 -43 -89 -103 -62 -157 34 -67 108 -76 181 -22 57
42 75 89 54 140 -29 69 -101 85 -173 39z"/>
<path d="M17610 20721 c-190 -21 -355 -43 -368 -50 -40 -21 -56 -58 -54 -124
1 -34 4 -74 7 -88 l6 -26 -148 -15 c-81 -9 -149 -15 -151 -13 -1 1 -6 35 -11
75 -10 80 -30 116 -76 139 -26 12 -74 9 -423 -27 -291 -31 -401 -46 -419 -57
-42 -28 -55 -76 -45 -161 6 -51 5 -74 -2 -74 -6 0 -69 -7 -141 -15 -71 -8
-135 -15 -141 -15 -7 0 -14 31 -17 76 -12 132 -54 163 -198 144 -46 -5 -87
-10 -91 -10 -3 0 19 -53 51 -117 102 -205 180 -441 222 -663 12 -63 23 -121
25 -127 2 -7 19 -13 39 -13 40 0 39 -3 25 109 -6 41 -9 76 -7 77 6 6 289 35
294 30 2 -2 31 -258 63 -568 33 -309 62 -584 65 -611 7 -55 10 -53 -97 -62
l-77 -7 -25 -43 c-14 -24 -44 -59 -66 -78 -35 -30 -44 -46 -64 -118 -27 -98
-57 -170 -90 -213 -12 -17 -25 -38 -28 -47 -4 -10 -54 -35 -118 -60 l-111 -44
-59 -114 c-33 -63 -59 -115 -57 -116 1 -1 111 10 244 25 205 21 246 28 270 46
46 34 54 59 47 152 l-7 82 29 1 c16 0 82 6 148 13 82 8 119 9 121 2 2 -6 7
-41 10 -79 8 -80 37 -123 91 -133 28 -5 658 53 773 72 21 3 48 19 69 40 l35
35 -7 89 c-5 70 -4 90 6 90 7 0 72 7 143 15 72 8 133 15 136 15 4 0 10 -30 14
-67 10 -93 25 -126 69 -147 36 -17 48 -16 429 24 267 28 399 46 414 56 47 30
56 58 50 148 l-6 84 31 6 c17 3 47 6 67 6 68 0 66 -9 37 271 -15 139 -28 254
-29 255 -1 2 -38 -2 -81 -7 -43 -5 -79 -9 -80 -7 -3 4 -127 1200 -126 1219 0
13 16 18 81 23 l81 8 -5 31 c-3 18 -16 135 -29 260 l-23 228 -81 -7 -82 -7 -7
59 c-15 133 -42 165 -139 163 -33 -1 -216 -18 -406 -38z m-355 -833 c9 -45
127 -1200 122 -1204 -6 -7 -287 -37 -292 -33 -5 6 -133 1223 -129 1228 4 5
204 28 256 30 31 1 38 -3 43 -21z"/>
<path d="M10840 20009 c-36 -5 -89 -11 -117 -15 -41 -4 -60 -12 -84 -37 l-32
-31 5 -93 c4 -64 2 -93 -6 -93 -6 0 -72 -7 -146 -15 -74 -8 -136 -13 -137 -11
-2 1 -7 35 -12 75 -11 82 -28 115 -74 137 -31 15 -61 13 -427 -26 -270 -29
-400 -46 -416 -56 -41 -28 -55 -74 -46 -157 l8 -75 -40 -6 c-112 -15 -247 -26
-256 -21 -6 3 -10 25 -10 48 0 53 -17 117 -37 139 -34 38 -68 38 -460 -3 -208
-22 -390 -45 -405 -51 -15 -6 -37 -26 -49 -44 -19 -31 -20 -43 -14 -118 l7
-83 -92 -7 -92 -8 6 -31 c3 -18 15 -131 27 -252 12 -121 25 -224 29 -228 4 -5
45 -4 91 1 46 6 85 10 86 9 3 -3 131 -1232 129 -1234 -1 -1 -39 -5 -85 -9 -57
-5 -84 -11 -88 -21 -3 -8 4 -107 16 -221 32 -299 31 -293 50 -288 9 3 50 8 92
11 l76 7 6 -76 c8 -87 26 -122 72 -142 27 -11 84 -7 416 28 222 23 397 46 414
54 50 23 60 49 60 149 l0 90 105 12 c58 6 124 12 148 12 l42 1 0 -37 c2 -124
43 -183 128 -183 26 0 211 18 412 39 l364 39 34 37 35 38 -7 87 -7 87 123 12
c68 6 135 14 149 17 27 5 27 4 34 -68 9 -88 25 -122 68 -144 30 -16 45 -16
263 6 l232 24 -69 83 c-95 116 -206 285 -282 433 l-64 124 -102 43 c-85 37
-104 42 -115 30 -12 -12 -282 -45 -290 -36 -2 2 -31 270 -65 594 -34 325 -64
600 -66 611 -4 17 1 23 24 27 27 6 28 9 34 74 7 87 27 133 83 193 58 62 126
92 225 98 l77 4 12 77 c11 68 73 331 87 367 3 8 1 13 -3 13 -5 -1 -38 -5 -74
-10z m-1425 -961 c3 -24 30 -279 60 -568 30 -289 57 -548 60 -576 l6 -51 -143
-13 c-79 -7 -145 -14 -148 -14 -3 -1 -8 19 -13 44 -9 51 -127 1184 -123 1187
2 2 237 30 273 32 18 1 23 -6 28 -41z"/>
<path d="M18512 17560 c-34 -4 -64 -9 -66 -11 -3 -2 -1 -24 4 -49 7 -37 33
-270 56 -508 l5 -52 37 5 c20 2 58 7 85 10 l47 6 -5 62 c-19 232 -29 326 -43
427 -19 130 -11 123 -120 110z"/>
<path d="M18332 17517 c-69 -8 -82 -12 -78 -26 2 -9 7 -38 11 -66 3 -27 8 -62
11 -76 5 -24 1 -27 -61 -44 -52 -14 -66 -21 -62 -34 32 -114 43 -141 55 -136
8 3 31 8 51 11 l38 6 6 -68 c4 -38 7 -85 7 -105 l0 -35 68 7 c37 5 76 8 86 8
18 1 19 7 12 109 -8 132 -46 445 -55 452 -3 3 -43 2 -89 -3z"/>
<path d="M18060 17469 c-105 -8 -209 -21 -328 -41 l-63 -10 6 -47 c15 -117 13
-112 49 -106 l33 7 6 -69 c4 -37 7 -87 7 -110 0 -38 -2 -42 -31 -48 l-30 -7 6
-56 c10 -97 13 -105 38 -98 39 9 320 55 406 66 46 5 86 12 89 14 2 3 0 38 -4
78 l-9 73 -41 -3 -42 -4 -6 64 c-4 35 -9 79 -12 100 -5 36 -5 36 35 43 35 6
40 10 36 28 -2 12 -7 48 -10 80 -4 35 -11 56 -18 56 -7 -1 -59 -5 -117 -10z
m-87 -234 c11 -88 5 -149 -14 -153 -13 -2 -17 11 -23 75 -4 43 -9 93 -13 111
-5 31 -4 33 18 30 21 -3 25 -10 32 -63z"/>
<path d="M17323 17443 c-39 -5 -39 -4 -19 -159 15 -112 31 -256 41 -379 3 -38
8 -71 10 -73 2 -2 43 -1 91 3 l87 8 -7 127 -7 127 32 7 c17 3 47 6 65 6 l34 0
-6 58 c-10 109 -6 104 -82 101 l-67 -3 -7 60 c-16 132 -11 124 -76 122 -31 0
-72 -3 -89 -5z"/>
<path d="M16475 17395 c-38 -7 -122 -18 -185 -25 -63 -6 -133 -13 -155 -15
-22 -2 -57 -4 -77 -4 -36 -1 -37 -2 -33 -33 3 -18 7 -54 10 -80 l6 -48 75 0
74 0 0 -29 c0 -17 -13 -50 -30 -74 -35 -52 -110 -197 -110 -212 0 -6 36 -23
80 -37 l80 -26 41 76 c67 127 55 120 151 82 46 -19 110 -46 142 -62 33 -15 60
-27 62 -25 1 1 21 33 44 71 l42 69 -24 19 c-25 19 -216 102 -260 113 -16 4
-28 11 -28 15 0 5 -3 15 -6 23 -6 16 -2 18 124 37 72 12 72 12 72 43 0 51 -12
137 -19 136 -3 -1 -37 -7 -76 -14z"/>
<path d="M17055 17369 c-131 -13 -298 -38 -308 -48 -7 -7 8 -150 17 -158 2 -2
44 3 92 11 49 8 115 18 147 22 56 6 57 6 57 -20 0 -28 2 -28 -120 -46 -41 -6
-92 -15 -112 -21 -34 -9 -36 -12 -33 -42 18 -141 14 -129 43 -122 68 17 160
35 184 35 30 0 30 2 8 -102 l-8 -37 57 -6 c31 -3 73 -8 94 -10 20 -3 37 -4 37
-3 0 2 7 37 16 78 16 77 22 400 8 454 -7 29 -16 30 -179 15z"/>
<path d="M15750 17273 c-19 -2 -53 -5 -76 -8 l-41 -6 8 -52 c15 -92 57 -478
58 -540 1 -17 8 -18 69 -12 118 11 112 7 112 76 0 83 -28 353 -52 487 -8 48
-14 62 -27 60 -9 0 -32 -3 -51 -5z"/>
<path d="M15335 17184 c-60 -7 -145 -18 -188 -25 l-78 -12 7 -81 c3 -44 8 -82
9 -84 2 -2 38 3 81 12 44 8 109 17 145 21 63 7 67 6 74 -15 9 -27 -7 -40 -51
-40 -34 0 -115 -14 -176 -30 l-38 -11 6 -72 c4 -40 9 -75 13 -79 4 -4 31 -1
61 7 30 8 81 18 114 21 l59 7 -8 -58 c-4 -32 -9 -64 -12 -71 -4 -12 38 -20
142 -27 l39 -2 14 55 c14 57 24 362 15 453 l-5 48 -57 -2 c-31 -2 -105 -8
-166 -15z"/>
<path d="M11176 16953 l-68 -4 6 -57 c4 -31 9 -69 12 -83 5 -26 3 -27 -59 -39
-92 -17 -91 -16 -67 -94 l21 -68 46 7 c25 4 52 9 59 12 8 3 15 -2 15 -11 1 -9
3 -20 4 -26 1 -5 3 -40 4 -76 l1 -67 86 7 c48 3 91 9 96 12 13 8 -22 460 -39
487 -2 4 -14 6 -26 5 -12 -1 -53 -4 -91 -5z"/>
<path d="M10745 16915 c-55 -6 -126 -18 -159 -24 l-59 -13 7 -118 c9 -173 40
-400 55 -400 3 0 109 16 235 36 l228 37 -6 36 c-3 20 -6 51 -6 69 0 31 -1 32
-42 32 -24 -1 -88 -9 -143 -20 -72 -13 -102 -15 -107 -7 -12 19 -1 24 79 36
127 20 137 22 141 25 1 2 0 33 -4 70 -6 58 -9 66 -28 66 -21 0 -127 -15 -177
-26 -22 -4 -27 -1 -31 20 -6 31 2 33 151 42 l113 7 -6 66 c-3 36 -6 69 -6 74
0 10 -119 7 -235 -8z"/>
<path d="M16590 16833 c-89 -5 -357 -33 -462 -49 -54 -8 -100 -14 -103 -14 -7
0 -6 -68 1 -123 6 -41 9 -46 28 -42 46 11 340 45 489 56 l157 13 0 36 c0 21
-3 58 -6 84 -6 39 -10 46 -28 44 -11 -1 -46 -3 -76 -5z"/>
<path d="M14273 16717 c-62 -24 -122 -75 -154 -132 -19 -35 -37 -54 -45 -51
-39 15 -144 27 -188 21 -64 -9 -538 -141 -575 -159 -75 -40 -131 -135 -131
-223 0 -38 -3 -44 -17 -39 -10 3 -54 7 -98 11 -182 13 -361 25 -377 25 -16 0
-17 12 -11 154 6 154 6 155 -22 211 -32 66 -94 117 -169 140 -150 46 -302 -29
-351 -172 -15 -43 -30 -248 -28 -368 4 -138 40 -244 111 -317 l36 -38 -28 0
c-80 0 -176 -63 -219 -144 -17 -32 -22 -58 -22 -121 0 -69 4 -86 27 -126 31
-53 78 -96 126 -116 32 -13 141 -25 352 -38 137 -8 248 -15 305 -20 310 -26
417 -25 471 2 37 20 114 93 114 111 0 4 4 13 9 21 8 12 15 10 43 -11 81 -62
196 -95 286 -83 48 7 563 147 615 167 15 6 46 24 68 40 39 28 41 28 100 18
107 -20 211 17 282 100 65 77 73 167 28 330 -17 58 -62 220 -101 360 -39 140
-76 270 -82 289 -14 44 -81 117 -133 143 -48 26 -174 34 -222 15z m157 -162
c16 -8 34 -23 39 -34 21 -38 211 -742 211 -779 0 -46 -32 -85 -85 -102 -44
-14 -110 2 -129 33 -8 12 -44 128 -81 257 -36 129 -84 300 -106 379 -22 79
-38 154 -35 166 8 30 44 75 70 85 33 14 84 11 116 -5z m-1963 -45 c51 -31 54
-44 51 -234 -3 -163 -2 -176 18 -203 34 -46 94 -59 358 -77 131 -9 246 -21
257 -26 30 -17 49 -52 49 -93 0 -49 -13 -73 -51 -93 -26 -13 -49 -14 -167 -5
-75 5 -138 8 -141 6 -2 -3 -6 -49 -9 -104 l-5 -99 119 -7 c189 -11 255 -21
276 -42 25 -25 34 -85 18 -123 -26 -64 -20 -63 -527 -30 -252 17 -472 32 -490
35 -41 7 -83 56 -83 98 0 43 33 95 66 103 14 4 102 1 196 -6 93 -6 172 -9 175
-7 3 3 7 50 10 105 l6 99 -45 7 c-54 8 -151 53 -195 90 -41 34 -73 101 -83
173 -11 78 8 359 27 396 27 54 113 72 170 37z m1571 -139 c127 -65 190 -269
123 -399 -21 -41 -79 -88 -136 -110 -16 -6 -88 -28 -160 -47 -182 -50 -192
-54 -199 -72 -9 -23 12 -91 32 -102 12 -6 90 12 262 60 135 38 261 69 282 69
99 0 124 -161 31 -198 -42 -17 -522 -149 -569 -157 -105 -16 -210 54 -253 170
-49 131 -37 228 38 305 49 51 57 54 345 137 54 15 103 35 108 43 13 20 -8 99
-28 107 -8 3 -115 -22 -237 -56 -122 -34 -232 -61 -245 -61 -53 0 -92 49 -92
115 0 63 22 74 270 145 124 35 241 67 260 71 51 11 123 3 168 -20z"/>
<path d="M10231 16703 l-34 -4 7 -47 c13 -91 46 -448 46 -505 l0 -59 88 7 c48
4 89 9 92 12 12 11 -12 369 -38 548 l-7 50 -60 1 c-33 1 -75 -1 -94 -3z"/>
<path d="M10035 16643 c-38 -7 -147 -18 -242 -24 l-172 -13 5 -65 c3 -36 7
-71 9 -78 3 -7 30 -13 72 -15 l68 -3 3 -31 c2 -23 -16 -67 -68 -168 l-72 -136
44 -18 c56 -25 119 -45 123 -40 1 1 24 45 49 96 l46 92 33 -16 c17 -9 65 -39
105 -65 40 -27 74 -49 77 -49 4 0 85 105 98 127 7 11 -104 88 -193 133 -52 26
-60 35 -60 73 0 21 5 27 21 27 12 0 50 5 85 12 l63 11 -6 76 c-3 42 -8 78 -12
82 -3 3 -37 -1 -76 -8z"/>
<path d="M0 14991 l0 -1651 63 0 c145 0 377 51 546 119 363 147 690 442 856
772 l35 69 52 -39 c217 -165 456 -245 582 -197 56 21 113 83 122 132 12 62 -3
175 -36 277 -33 104 -150 345 -214 440 -54 82 -54 120 4 212 62 100 154 296
191 406 36 109 49 235 29 293 -7 21 -26 53 -43 72 -127 145 -360 85 -652 -169
l-40 -35 -34 67 c-253 495 -799 850 -1348 878 l-113 6 0 -1652z m852 352 c186
-186 338 -345 338 -353 0 -15 -639 -662 -671 -681 -20 -10 -59 15 -59 39 0 9
141 158 312 329 l313 313 -313 313 c-171 171 -312 320 -312 329 0 14 35 48 49
48 3 0 157 -152 343 -337z"/>
<path d="M9346 16623 l-39 -4 7 -47 c13 -91 46 -448 46 -506 l0 -59 61 7 c34
3 75 6 90 6 l29 0 0 95 c0 88 -34 474 -45 503 -4 12 -60 14 -149 5z"/>
<path d="M9140 16572 c-70 -5 -265 -33 -313 -45 l-50 -11 6 -166 c6 -151 27
-313 42 -328 16 -16 440 49 461 71 7 7 -40 147 -50 147 -6 0 -54 -9 -106 -20
-52 -11 -109 -20 -126 -20 -30 0 -31 2 -38 53 -3 28 -6 71 -6 93 0 47 0 46
120 59 30 3 69 8 85 11 l31 4 -7 75 c-3 41 -8 76 -10 78 -2 1 -20 1 -39 -1z"/>
<path d="M11179 16406 c-2 -2 -47 -6 -99 -9 -52 -4 -130 -9 -174 -13 l-78 -7
4 -69 c3 -38 8 -71 10 -74 3 -2 36 0 74 5 139 20 216 23 212 10 -2 -7 -31 -18
-64 -25 -33 -6 -97 -22 -143 -34 l-84 -23 6 -111 c4 -61 9 -128 13 -149 7 -38
8 -39 43 -34 61 7 394 57 430 65 l35 7 -3 60 c-1 33 -6 64 -11 69 -8 8 -195
-12 -289 -30 -24 -5 -31 -3 -31 9 0 9 4 18 9 22 12 7 176 40 245 50 l49 7 -7
94 c-3 52 -9 114 -13 139 l-6 45 -62 0 c-34 0 -64 -2 -66 -4z"/>
<path d="M4438 14029 c-16 -9 -18 -32 -18 -249 l0 -240 25 -16 c20 -13 33 -15
58 -8 l32 10 3 107 3 107 52 0 c60 0 77 12 77 52 0 34 -24 48 -84 48 l-46 0 0
90 c0 78 -2 91 -19 100 -25 13 -61 12 -83 -1z"/>
<path d="M5307 14022 c-10 -10 -17 -26 -17 -35 0 -14 -15 -17 -101 -19 -89 -3
-103 -6 -115 -23 -11 -16 -11 -25 -1 -45 12 -24 17 -25 115 -28 94 -2 102 -4
102 -22 0 -18 -7 -20 -94 -20 -116 0 -126 -3 -126 -44 0 -50 13 -56 122 -56
l98 0 0 -62 c0 -35 4 -68 8 -75 14 -22 57 -32 83 -19 l24 12 3 214 c2 193 1
216 -15 227 -25 19 -67 16 -86 -5z"/>
<path d="M13067 14022 c-13 -14 -17 -38 -17 -90 l0 -72 -63 0 c-67 0 -87 -10
-87 -45 0 -35 20 -45 87 -45 l62 0 3 -77 c3 -74 4 -78 31 -91 19 -9 36 -11 55
-4 l27 9 3 204 c2 183 1 205 -15 216 -25 19 -67 16 -86 -5z"/>
<path d="M18014 14016 c-11 -18 -15 -42 -12 -83 l3 -58 -93 -3 c-87 -3 -93 -4
-104 -27 -9 -19 -7 -29 6 -50 16 -24 21 -25 104 -25 l87 0 -1 -77 c-1 -42 1
-85 3 -94 7 -26 55 -40 84 -25 l24 12 3 214 c2 193 1 216 -15 227 -28 21 -71
16 -89 -11z"/>
<path d="M19748 14029 c-15 -8 -18 -24 -18 -89 l0 -80 -81 0 c-95 0 -119 -10
-119 -48 0 -45 16 -52 112 -52 l88 0 0 -84 c0 -93 9 -110 61 -108 58 1 59 5
59 232 0 188 -2 208 -18 223 -21 19 -58 22 -84 6z"/>
<path d="M20568 14029 c-16 -9 -18 -31 -18 -222 0 -152 3 -216 12 -225 7 -7
28 -12 48 -12 20 0 41 5 48 12 9 9 12 73 12 225 0 200 -1 213 -19 223 -25 13
-61 12 -83 -1z"/>
<path d="M17622 14014 c-20 -14 -22 -24 -22 -103 0 -117 -12 -135 -154 -234
-25 -17 -15 -64 18 -78 29 -14 62 2 142 67 53 43 57 45 77 29 126 -91 165
-107 197 -75 32 32 22 54 -50 102 -93 62 -110 91 -110 194 0 62 -4 87 -16 98
-20 20 -53 20 -82 0z"/>
<path d="M4070 14010 c-73 -14 -136 -66 -155 -128 -12 -41 -7 -130 10 -164 37
-73 112 -118 196 -118 74 0 168 62 189 124 56 173 -68 320 -240 286z m89 -105
c68 -35 65 -162 -4 -193 -68 -31 -125 5 -132 84 -4 56 11 93 47 111 33 17 55
16 89 -2z"/>
<path d="M20157 14006 c-122 -33 -178 -179 -112 -291 37 -63 114 -100 195 -92
119 10 193 85 193 196 0 97 -58 170 -153 190 -61 13 -62 13 -123 -3z m130
-110 c24 -21 28 -32 28 -74 0 -69 -30 -102 -92 -102 -68 0 -103 49 -89 123 14
76 94 103 153 53z"/>
<path d="M4795 13987 c-12 -19 -14 -54 -12 -181 3 -208 -12 -196 228 -196 166
0 179 1 189 19 14 27 13 47 -6 65 -12 13 -41 16 -155 16 l-139 0 0 138 c0 94
-4 142 -12 150 -21 21 -76 15 -93 -11z"/>
<path d="M12560 13992 c-18 -15 -22 -28 -22 -87 -2 -191 2 -254 18 -269 13
-13 44 -16 185 -16 167 0 170 0 178 23 5 12 5 31 1 42 -7 18 -18 20 -139 23
l-131 3 0 29 0 30 109 0 c120 0 135 7 129 57 l-3 28 -118 3 -118 3 3 26 3 26
100 0 c122 -1 145 7 145 45 0 48 -12 52 -171 52 -125 0 -150 -3 -169 -18z"/>
<path d="M6173 13992 c-12 -2 -26 -9 -32 -16 -8 -9 -10 -112 -9 -327 l3 -314
28 -13 c23 -11 34 -11 58 -2 l29 12 0 144 0 144 53 0 c59 0 77 12 77 50 0 38
-18 50 -77 50 l-53 0 0 124 c0 125 -3 136 -40 147 -8 3 -25 3 -37 1z"/>
<path d="M7132 13992 c-12 -2 -27 -12 -32 -22 -7 -12 -9 -133 -8 -327 l3 -308
28 -13 c19 -9 36 -11 55 -4 l27 9 3 318 c1 210 -1 322 -8 330 -13 16 -38 22
-68 17z"/>
<path d="M10293 13992 c-12 -2 -26 -9 -32 -16 -8 -9 -10 -112 -9 -327 l3 -313
28 -16 c24 -13 30 -13 55 0 l27 16 3 313 c1 208 -1 318 -8 326 -13 16 -38 22
-67 17z"/>
<path d="M11428 13986 l-23 -12 0 -319 0 -319 28 -16 c24 -13 30 -13 55 0 l27
16 3 307 c1 188 -2 315 -8 326 -12 23 -53 32 -82 17z"/>
<path d="M12272 13992 c-12 -2 -27 -12 -32 -22 -7 -12 -9 -133 -8 -327 l3
-308 28 -13 c23 -11 34 -11 58 -2 l29 12 0 318 c0 242 -3 320 -12 327 -19 14
-40 19 -66 15z"/>
<path d="M14223 13988 c-13 -6 -23 -20 -23 -32 -4 -189 1 -621 8 -628 4 -4 22
-10 39 -14 24 -5 36 -1 52 15 21 21 21 28 21 326 -1 258 -3 307 -16 320 -9 8
-19 15 -24 15 -5 0 -14 2 -22 4 -7 3 -23 0 -35 -6z"/>
<path d="M15868 13986 l-23 -12 -3 -322 -2 -322 26 -10 c37 -14 52 -12 74 10
18 18 20 33 20 155 l0 135 49 0 c52 0 81 17 81 49 0 34 -23 50 -78 53 l-53 3
-1 115 c0 63 -4 122 -9 131 -11 22 -53 29 -81 15z"/>
<path d="M16868 13988 l-28 -10 0 -324 0 -324 26 -10 c37 -14 52 -12 74 10 20
20 20 32 20 323 -1 166 -4 308 -8 314 -13 20 -55 31 -84 21z"/>
<path d="M19202 13988 c-7 -7 -12 -24 -12 -38 0 -40 18 -50 88 -50 l64 0 -4
-55 c-6 -74 -37 -113 -147 -186 -19 -12 -23 -21 -17 -42 11 -46 39 -52 96 -21
28 15 68 44 89 63 l39 36 34 -28 c38 -32 103 -72 134 -81 24 -7 64 26 64 53 0
11 -25 33 -65 59 -78 49 -105 89 -105 155 l0 47 65 0 c58 0 66 3 81 25 14 21
15 31 6 50 l-12 25 -193 0 c-137 0 -196 -3 -205 -12z"/>
<path d="M21405 13992 c-43 -8 -45 -20 -45 -344 l0 -308 25 -16 c20 -13 33
-15 58 -7 l32 9 3 318 c1 211 -1 323 -8 331 -13 16 -38 22 -65 17z"/>
<path d="M22188 13986 l-23 -12 0 -319 0 -319 28 -16 c24 -13 30 -13 55 0 l27
16 3 141 3 142 57 3 c52 3 57 5 66 31 16 45 -1 61 -68 65 l-56 3 0 123 c0 87
-4 126 -12 133 -22 17 -56 21 -80 9z"/>
<path d="M6943 13975 c-21 -15 -23 -23 -23 -125 l0 -109 -72 -3 -73 -3 -3 -37
c-4 -44 18 -60 76 -58 78 4 72 16 72 -145 0 -144 0 -145 25 -161 20 -13 33
-15 58 -7 l32 9 3 311 c2 241 -1 313 -10 321 -25 20 -62 23 -85 7z"/>
<path d="M7645 13974 c-121 -44 -173 -196 -102 -303 93 -140 360 -126 428 22
22 50 25 125 5 170 -19 45 -73 93 -125 112 -54 19 -153 18 -206 -1z m196 -113
c53 -54 40 -143 -27 -175 -43 -20 -84 -20 -129 -2 -42 18 -58 47 -57 105 1 38
6 51 32 74 26 23 39 27 91 27 54 0 64 -3 90 -29z"/>
<path d="M16702 13974 c-20 -14 -22 -23 -22 -129 l0 -114 -46 -3 c-58 -4 -80
-29 -61 -68 10 -21 21 -26 60 -28 l47 -3 0 -137 c0 -75 4 -142 8 -149 14 -21
60 -26 87 -9 l25 16 0 304 c0 231 -3 306 -12 313 -25 20 -64 23 -86 7z"/>
<path d="M18831 13976 c-8 -9 -11 -104 -9 -327 l3 -313 28 -16 c24 -13 30 -13
55 0 l27 16 3 142 3 142 49 0 c69 0 96 31 70 81 -9 15 -22 19 -65 19 l-55 0 0
123 c0 82 -4 127 -12 135 -16 16 -83 15 -97 -2z"/>
<path d="M9018 13969 c-16 -9 -18 -28 -18 -168 0 -152 1 -158 23 -179 19 -18
35 -22 90 -22 l67 0 0 -85 0 -85 -150 0 -150 0 -6 -24 c-10 -39 -1 -59 30 -67
35 -10 618 -12 664 -3 23 5 34 13 39 32 13 52 -1 57 -161 60 l-146 3 0 84 0
85 93 0 c101 0 117 7 117 50 0 47 -11 50 -207 50 l-183 0 0 123 c0 107 -2 126
-18 140 -21 19 -58 22 -84 6z"/>
<path d="M5670 13950 c-13 -25 -5 -57 18 -69 22 -11 228 -14 266 -3 33 9 47
37 35 70 -8 21 -12 22 -158 22 -141 0 -151 -1 -161 -20z"/>
<path d="M14828 13953 l-218 -3 -6 -27 c-12 -48 4 -58 100 -61 l86 -3 0 -32
c0 -66 -53 -117 -175 -172 -62 -27 -70 -48 -31 -84 22 -21 28 -22 63 -11 56
18 104 44 156 84 l46 35 38 -31 c43 -34 110 -69 166 -88 35 -11 40 -10 63 11
39 36 31 57 -31 84 -123 55 -175 106 -175 173 l0 32 85 0 c81 0 86 1 97 25 9
19 8 29 -6 50 -9 14 -22 24 -29 23 -6 -2 -110 -4 -229 -5z"/>
<path d="M6611 13911 c-11 -7 -16 -41 -19 -138 -3 -79 -9 -138 -18 -154 -7
-14 -39 -50 -70 -78 -52 -48 -57 -55 -48 -79 15 -43 55 -41 115 5 27 21 57 48
65 61 l16 24 15 -22 c25 -35 113 -100 137 -100 25 0 56 28 56 50 0 7 -28 38
-61 69 -34 30 -68 70 -75 88 -9 21 -14 73 -14 146 0 74 -4 117 -12 125 -14 14
-67 16 -87 3z"/>
<path d="M18462 13908 c-8 -8 -12 -46 -12 -104 0 -140 -32 -206 -132 -270 -46
-30 -51 -65 -12 -91 25 -16 28 -16 71 8 25 13 65 44 90 68 l44 43 54 -51 c30
-29 71 -59 91 -67 32 -13 38 -13 59 0 12 8 25 24 28 36 5 20 -15 50 -34 50
-21 0 -94 79 -115 125 -20 41 -24 67 -24 146 0 107 -6 119 -60 119 -20 0 -41
-5 -48 -12z"/>
<path d="M20869 13894 c-21 -26 -13 -402 9 -427 14 -16 34 -17 201 -15 l186 3
9 27 c8 22 6 32 -9 48 -17 18 -30 20 -157 20 l-138 0 0 168 c0 117 -4 172 -12
180 -17 17 -73 15 -89 -4z"/>
<path d="M9737 13893 c-4 -3 -7 -21 -7 -39 0 -47 20 -54 154 -54 l116 0 0 -40
0 -40 -115 0 c-151 0 -155 -4 -155 -141 0 -143 -1 -143 184 -147 178 -5 214 0
222 33 3 13 1 33 -6 44 -10 20 -19 21 -145 21 l-135 0 0 45 c0 53 7 56 120 52
132 -5 150 12 150 142 0 64 -4 83 -21 105 l-20 26 -168 0 c-92 0 -171 -3 -174
-7z"/>
<path d="M10901 13864 c-19 -25 -21 -40 -21 -196 l0 -170 29 -28 29 -29 153 0
c85 1 162 5 171 10 23 12 31 44 18 69 -10 19 -20 20 -140 20 l-129 0 -6 53
c-4 30 -5 85 -3 123 l4 69 115 5 c123 5 149 15 149 54 0 42 -15 46 -186 46
l-163 0 -20 -26z"/>
<path d="M11712 13878 c-18 -18 -15 -53 6 -71 13 -12 37 -17 75 -17 l57 0 0
-67 c0 -82 -19 -119 -86 -166 -26 -17 -53 -37 -62 -43 -20 -14 -9 -60 19 -74
16 -9 29 -6 66 16 25 14 63 42 84 61 l39 35 44 -39 c25 -22 66 -51 91 -64 l46
-24 25 29 c14 15 23 33 21 39 -2 7 -30 30 -62 52 -85 57 -105 92 -105 176 l0
69 64 0 c45 0 69 5 80 16 19 18 21 55 4 72 -17 17 -389 17 -406 0z"/>
<path d="M13677 13883 c-15 -14 -7 -72 11 -81 9 -5 69 -9 132 -10 l115 -1 3
-51 3 -50 -93 -2 c-51 0 -99 -1 -107 0 -35 1 -61 -18 -61 -46 0 -47 14 -52
142 -52 l118 0 0 -68 c0 -78 9 -92 60 -92 20 0 41 5 48 12 9 9 12 69 12 210 0
257 17 238 -208 238 -93 0 -172 -3 -175 -7z"/>
<path d="M15331 13868 c-5 -13 -6 -30 -3 -38 11 -34 35 -40 154 -40 l118 0 0
-50 0 -50 -77 -1 c-81 0 -149 -6 -170 -14 -16 -6 -17 -57 -1 -73 8 -8 52 -12
130 -12 l118 0 0 -68 c0 -78 9 -92 60 -92 20 0 41 5 48 12 9 9 12 69 12 210 0
257 17 238 -210 238 -168 0 -171 0 -179 -22z"/>
<path d="M16200 13876 c-20 -25 -8 -60 28 -78 l34 -16 -1 -101 c0 -56 0 -110
-1 -120 0 -16 -8 -20 -37 -23 -36 -3 -38 -5 -41 -40 -2 -28 1 -39 15 -47 24
-12 391 -13 414 0 47 25 28 89 -25 89 -19 0 -36 6 -38 13 -3 6 -5 62 -4 122
l1 110 35 11 c37 12 46 30 36 70 l-6 24 -199 0 c-161 0 -201 -3 -211 -14z
m230 -211 c0 -117 -1 -125 -19 -125 -16 0 -21 9 -25 53 -5 40 -2 178 3 195 1
1 10 2 21 2 19 0 20 -7 20 -125z"/>
<path d="M21684 13869 c-17 -19 -19 -41 -22 -194 -3 -171 -3 -173 21 -201 l25
-29 157 -3 c90 -1 164 2 175 8 25 13 34 44 20 69 -9 19 -22 21 -143 23 l-132
3 -1 95 c-1 52 1 109 3 125 l5 30 104 -3 c116 -5 154 8 154 51 0 43 -15 47
-185 47 -152 0 -163 -1 -181 -21z"/>
<path d="M5606 13828 c-19 -11 -21 -59 -4 -76 9 -9 74 -12 230 -12 l218 0 10
26 c13 34 -2 61 -37 68 -45 8 -400 3 -417 -6z"/>
<path d="M5790 13710 c-78 -14 -122 -53 -141 -122 -14 -52 3 -106 43 -145 42
-40 76 -53 141 -53 125 1 203 84 183 195 -17 86 -121 145 -226 125z m98 -114
c38 -49 3 -116 -60 -116 -61 0 -95 90 -46 124 34 24 83 20 106 -8z"/>
<path d="M7583 13560 c-20 -8 -23 -16 -23 -69 l0 -60 -87 -3 -88 -3 -3 -38
c-3 -32 0 -38 23 -47 28 -11 644 -14 683 -4 26 7 40 49 25 73 -8 12 -30 17
-92 19 l-81 3 0 60 c0 55 -2 60 -26 69 -60 23 -94 -5 -94 -80 l0 -50 -69 0
-69 0 -4 56 c-6 76 -35 98 -95 74z"/>
<path d="M12746 13554 c-19 -18 -20 -38 -6 -65 10 -17 23 -19 160 -19 143 0
150 -1 150 -20 0 -19 -7 -20 -134 -20 -120 0 -136 -2 -160 -21 -24 -19 -26
-26 -26 -103 0 -74 3 -85 23 -104 23 -22 30 -22 227 -20 178 3 204 5 214 20 7
11 7 26 0 45 l-9 28 -168 3 -167 2 0 25 0 25 140 0 c177 0 180 2 180 119 0 74
-2 81 -26 100 -25 19 -40 21 -205 21 -148 0 -180 -3 -193 -16z"/>
<path d="M5109 13545 c-93 -30 -148 -131 -119 -219 61 -185 370 -170 406 20
26 141 -131 249 -287 199z m146 -110 c56 -55 16 -145 -63 -145 -60 0 -92 30
-92 86 0 60 25 84 85 84 35 0 52 -6 70 -25z"/>
<path d="M20245 13546 c-18 -13 -20 -28 -23 -143 -3 -119 -2 -130 18 -156 l21
-27 185 0 c239 0 226 -10 222 178 l-3 137 -27 13 c-41 20 -82 -2 -86 -46 -3
-25 -8 -32 -25 -32 -135 -3 -167 -3 -171 1 -3 2 -7 17 -10 33 -7 37 -14 44
-51 51 -19 4 -37 1 -50 -9z m305 -206 l0 -31 -102 3 c-99 3 -102 4 -101 26 0
12 1 24 2 27 1 3 46 5 101 5 l100 0 0 -30z"/>
<path d="M19425 13519 c-16 -16 -20 -41 -23 -132 -4 -103 -2 -114 18 -139 l21
-28 185 0 c235 0 224 -8 224 158 0 168 8 162 -227 162 -169 0 -181 -1 -198
-21z m303 -142 l3 -67 -106 0 -105 0 0 65 0 64 88 3 c48 2 94 3 102 2 11 -1
16 -17 18 -67z"/>
<path d="M4138 13516 c-22 -11 -23 -17 -26 -127 -2 -105 -1 -118 18 -142 l21
-27 192 0 c106 0 197 4 203 8 20 14 25 45 9 68 -15 24 -19 24 -170 24 l-155 0
0 89 c0 59 -4 92 -12 98 -22 17 -56 21 -80 9z"/>
<path d="M17692 13518 c-7 -7 -12 -21 -12 -33 0 -41 17 -45 172 -45 l148 0 1
-97 c1 -54 1 -102 0 -107 -1 -5 6 -17 15 -27 19 -21 55 -25 85 -9 17 10 19 23
19 154 0 126 -2 145 -18 159 -16 15 -46 17 -208 17 -135 0 -194 -4 -202 -12z"/>
<path d="M14487 13423 c-4 -3 -7 -21 -7 -40 0 -26 5 -36 23 -43 12 -4 174 -8
360 -7 362 2 356 1 357 53 0 43 -7 44 -375 44 -194 0 -355 -3 -358 -7z"/>
<path d="M8274 13401 c-75 -46 -37 -151 54 -151 43 0 82 38 82 80 0 46 -16 68
-58 80 -47 13 -42 13 -78 -9z"/>
<path d="M22572 13405 c-57 -25 -65 -96 -15 -135 58 -45 143 -8 143 63 0 35
-30 77 -55 77 -7 0 -19 2 -27 5 -7 2 -28 -2 -46 -10z"/>
<path d="M7854 12859 c-142 -19 -209 -129 -144 -236 60 -100 304 -104 390 -7
26 30 30 43 30 91 0 51 -3 58 -38 93 -51 52 -138 73 -238 59z m126 -104 c51
-26 48 -85 -6 -105 -33 -13 -106 -13 -138 0 -29 11 -45 54 -29 79 25 40 118
54 173 26z"/>
<path d="M14350 12834 c-11 -28 1 -63 23 -66 24 -3 105 -5 230 -6 83 -1 126
-6 122 -12 -4 -6 -70 -10 -166 -10 -156 0 -160 -1 -184 -25 -22 -21 -25 -33
-25 -90 0 -107 -6 -105 275 -105 l235 0 6 27 c14 55 5 58 -205 61 -161 2 -191
5 -191 17 0 13 25 15 159 15 145 0 161 2 185 21 24 19 26 26 26 94 0 107 6
105 -262 105 l-218 0 -10 -26z"/>
<path d="M6386 12834 c-14 -13 -16 -48 -16 -223 0 -148 3 -210 12 -219 7 -7
28 -12 48 -12 20 0 41 5 48 12 9 9 12 71 12 219 0 228 -3 239 -60 239 -16 0
-36 -7 -44 -16z"/>
<path d="M7218 12839 c-16 -9 -18 -31 -18 -222 0 -152 3 -216 12 -225 7 -7 28
-12 48 -12 52 0 60 13 60 102 l0 77 57 3 c53 3 58 5 67 31 16 45 -1 61 -68 65
l-56 3 0 79 c0 58 -4 83 -16 94 -17 18 -60 20 -86 5z"/>
<path d="M11408 12839 c-15 -8 -18 -25 -18 -99 l0 -90 -88 0 c-92 0 -112 -8
-112 -44 0 -46 20 -54 132 -55 l67 -1 3 -107 3 -108 28 -9 c21 -8 35 -7 55 5
l27 15 3 233 c2 207 0 236 -14 253 -19 20 -59 23 -86 7z"/>
<path d="M13127 12832 c-13 -14 -17 -38 -17 -100 0 -71 -2 -82 -17 -83 -10 -1
-38 -2 -63 -3 l-45 -1 -5 78 c-5 84 -14 97 -62 97 -40 0 -58 -24 -58 -81 l0
-49 -70 0 c-49 0 -70 4 -71 13 -4 97 -15 117 -64 117 -54 0 -58 -12 -57 -206
0 -152 2 -178 18 -195 15 -17 32 -19 170 -19 145 0 154 1 174 22 15 16 20 35
20 75 l0 53 65 0 64 0 3 -102 c3 -99 4 -103 30 -117 20 -12 34 -13 55 -5 l28
9 3 245 c2 221 1 246 -15 258 -25 18 -67 15 -86 -6z m-267 -287 l0 -46 -72 3
-73 3 0 35 c0 19 1 38 3 43 2 4 34 7 73 7 l69 0 0 -45z"/>
<path d="M15958 12839 c-16 -9 -18 -31 -18 -222 0 -152 3 -216 12 -225 7 -7
28 -12 48 -12 20 0 41 5 48 12 9 9 12 73 12 225 0 200 -1 213 -19 223 -25 13
-61 12 -83 -1z"/>
<path d="M16788 12839 c-13 -7 -18 -23 -18 -59 l0 -50 -63 0 c-67 0 -87 -10
-87 -46 0 -39 26 -54 91 -54 52 0 59 -2 59 -20 0 -18 -7 -20 -68 -20 -74 0
-92 -10 -92 -50 0 -40 18 -50 92 -50 l68 0 0 -43 c0 -52 13 -67 60 -67 20 0
41 5 48 12 9 9 12 71 12 219 0 175 -2 210 -16 223 -17 18 -60 20 -86 5z"/>
<path d="M5970 12815 c-120 -37 -170 -186 -101 -298 14 -24 41 -45 77 -63 47
-23 63 -26 114 -21 119 10 193 85 193 196 0 31 -5 67 -13 81 -25 49 -74 90
-124 105 -60 18 -87 18 -146 0z m147 -117 c27 -31 25 -109 -5 -141 -60 -64
-162 -22 -162 66 0 102 101 147 167 75z"/>
<path d="M13592 12818 c-7 -7 -12 -24 -12 -38 0 -47 12 -50 186 -50 134 0 165
3 178 16 19 18 20 38 6 65 -10 18 -23 19 -178 19 -117 0 -172 -4 -180 -12z"/>
<path d="M15540 12815 c-163 -51 -181 -283 -28 -359 147 -74 311 18 311 173 0
31 -5 67 -13 81 -25 49 -74 90 -124 105 -60 18 -87 18 -146 0z m137 -109 c24
-21 28 -32 28 -75 0 -41 -5 -55 -26 -77 -29 -28 -80 -35 -117 -15 -46 25 -52
131 -10 171 31 28 89 27 125 -4z"/>
<path d="M16254 12795 c-15 -23 -15 -27 0 -50 16 -24 20 -25 126 -25 l110 0 0
-30 0 -30 -79 0 c-87 0 -137 -13 -151 -40 -6 -10 -10 -54 -10 -98 0 -64 4 -85
19 -103 19 -23 24 -24 178 -26 87 0 166 3 175 8 18 10 23 43 12 73 -5 13 -27
16 -135 16 l-129 0 0 35 0 35 100 0 c131 0 140 8 140 127 0 76 -2 86 -25 108
-23 24 -28 25 -169 25 -144 0 -146 0 -162 -25z"/>
<path d="M6692 12798 c-7 -7 -12 -24 -12 -38 0 -40 18 -50 88 -50 l65 0 -5
-50 c-6 -61 -40 -108 -114 -157 -33 -22 -54 -43 -54 -54 0 -19 33 -59 48 -59
16 0 112 61 145 92 l35 33 38 -32 c22 -18 61 -44 88 -58 39 -20 53 -22 70 -13
55 29 47 57 -29 106 -76 48 -105 90 -105 150 l0 42 65 0 c58 0 66 3 81 25 14
21 15 31 6 50 l-12 25 -193 0 c-137 0 -196 -3 -205 -12z"/>
<path d="M9310 12797 l-25 -13 -3 -346 -2 -345 31 -14 c27 -10 36 -10 58 2
l26 15 3 341 c2 265 -1 343 -10 350 -24 19 -53 23 -78 10z"/>
<path d="M10238 12796 c-22 -11 -23 -18 -26 -129 l-3 -117 -34 0 -35 0 0 109
c0 120 -7 135 -61 133 -60 -2 -59 4 -59 -328 l0 -304 25 -16 c20 -13 33 -15
58 -7 l32 9 3 152 3 152 34 0 34 0 3 -152 c3 -152 3 -152 29 -167 22 -12 29
-12 55 0 l29 14 3 314 c1 207 -1 318 -8 326 -15 19 -56 24 -82 11z"/>
<path d="M10862 12798 c-13 -13 -16 -47 -6 -72 5 -12 21 -16 75 -16 l69 0 0
-45 c0 -25 -6 -60 -14 -78 -16 -39 -89 -112 -128 -128 -39 -16 -35 -77 7 -93
23 -8 90 28 145 80 l46 43 49 -40 c73 -60 122 -83 151 -70 33 14 43 61 18 78
-130 91 -154 122 -154 199 l0 54 70 0 c65 0 71 2 82 25 9 19 8 29 -6 50 l-16
25 -188 0 c-133 0 -192 -4 -200 -12z"/>
<path d="M12270 12797 l-25 -13 0 -324 0 -324 32 -9 c25 -8 38 -6 58 7 26 17
26 18 25 139 -1 67 -1 130 -1 140 1 14 10 17 50 17 52 0 81 17 81 49 0 34 -23
50 -78 53 l-53 3 -2 122 c-1 67 -6 126 -12 131 -19 18 -50 22 -75 9z"/>
<path d="M19495 12802 c-45 -9 -45 -9 -45 -338 l0 -314 25 -16 c20 -13 33 -15
58 -7 l32 9 3 318 c1 211 -1 323 -8 331 -13 16 -39 22 -65 17z"/>
<path d="M8865 12785 c-117 -41 -153 -197 -66 -284 98 -98 297 -75 357 41 17
33 20 111 6 148 -14 34 -59 76 -104 94 -46 20 -139 20 -193 1z m175 -110 c6
-7 12 -32 13 -55 1 -46 -21 -74 -69 -86 -82 -21 -157 73 -107 135 33 41 131
44 163 6z"/>
<path d="M11790 12780 c-13 -25 -5 -57 18 -69 22 -11 218 -14 257 -3 23 6 31
15 33 36 6 51 -7 56 -159 56 -129 0 -139 -1 -149 -20z"/>
<path d="M17540 12787 l-25 -13 -3 -306 -2 -307 25 -17 c20 -13 33 -15 58 -7
l32 9 3 152 3 152 34 0 35 0 0 -154 0 -154 29 -12 c24 -9 35 -9 58 2 l28 13 3
314 c2 223 -1 318 -9 327 -14 17 -81 18 -97 2 -8 -8 -12 -50 -12 -125 l0 -113
-35 0 -35 0 0 109 c0 75 -4 112 -12 119 -24 18 -53 22 -78 9z"/>
<path d="M19325 12793 c-41 -10 -45 -22 -45 -134 l0 -109 -70 0 c-64 0 -71 -2
-79 -22 -4 -12 -6 -30 -3 -40 4 -18 33 -40 49 -37 4 1 29 1 56 0 l47 -1 0
-145 c0 -144 0 -145 25 -161 20 -13 33 -15 58 -7 l32 9 3 309 c2 306 2 310
-19 328 -12 9 -24 16 -28 16 -3 -1 -15 -4 -26 -6z"/>
<path d="M19995 12784 c-116 -43 -169 -177 -112 -285 46 -87 156 -131 275
-109 110 20 182 100 182 202 0 127 -97 209 -244 207 -34 0 -79 -7 -101 -15z
m191 -105 c40 -33 48 -103 19 -150 -14 -24 -69 -49 -105 -49 -42 0 -96 24
-110 49 -6 12 -11 42 -12 67 -1 76 57 118 149 104 23 -4 50 -13 59 -21z"/>
<path d="M18101 12768 c-21 -56 8 -76 112 -76 38 0 71 -3 74 -6 13 -13 -13
-60 -48 -88 -20 -16 -62 -40 -95 -53 -70 -28 -82 -43 -66 -79 9 -20 19 -26 42
-26 35 0 161 55 200 87 l25 21 44 -31 c48 -33 166 -86 192 -87 24 0 51 35 47
61 -3 24 -7 27 -96 65 -68 29 -122 81 -122 117 0 21 4 22 85 22 91 0 105 7
105 51 0 42 -13 44 -257 44 -232 0 -234 0 -242 -22z"/>
<path d="M9645 12765 c-3 -8 -7 -22 -10 -30 -2 -9 5 -25 16 -36 18 -18 32 -20
117 -18 53 1 107 5 119 10 27 10 38 42 23 69 -10 18 -20 20 -136 20 -102 0
-125 -3 -129 -15z"/>
<path d="M17135 12765 c-3 -8 -7 -22 -10 -30 -2 -9 4 -24 14 -34 15 -15 36
-19 120 -20 55 -1 110 3 120 9 26 13 35 44 21 70 -10 18 -20 20 -136 20 -102
0 -125 -3 -129 -15z"/>
<path d="M18972 12721 c-10 -6 -15 -42 -17 -133 -3 -146 -9 -163 -91 -237 -52
-47 -56 -55 -48 -78 17 -48 47 -47 111 2 32 24 63 52 70 63 11 19 14 17 62
-29 27 -26 63 -55 79 -63 28 -14 32 -14 56 5 14 11 26 28 26 36 0 9 -28 41
-61 72 -34 30 -68 70 -75 88 -9 21 -14 73 -14 146 0 74 -4 117 -12 125 -14 14
-67 16 -86 3z"/>
<path d="M13459 12669 c-8 -16 -8 -28 0 -45 9 -21 17 -24 66 -24 54 0 54 0 45
-26 -15 -37 -12 -121 4 -152 20 -37 55 -68 99 -87 34 -14 37 -19 37 -55 l0
-39 -152 -3 -153 -3 0 -40 0 -40 345 -5 c190 -3 353 -3 363 -1 21 4 34 48 20
70 -8 13 -35 16 -157 19 l-146 3 0 43 c0 40 2 44 29 49 35 7 87 50 107 89 18
34 20 111 5 150 l-10 27 56 3 c61 3 78 21 62 66 l-8 22 -300 0 c-296 0 -300 0
-312 -21z m375 -94 c69 -46 22 -165 -64 -165 -38 0 -80 29 -87 60 -7 36 -7 34
1 71 11 54 91 72 150 34z"/>
<path d="M11686 12649 c-24 -36 0 -79 45 -79 30 0 32 -7 14 -66 -2 -6 1 -31 6
-55 11 -49 46 -91 90 -109 24 -10 29 -18 29 -46 l0 -34 -78 0 c-85 0 -102 -8
-102 -50 0 -48 8 -50 251 -50 194 0 230 2 243 16 19 19 20 44 4 67 -10 13 -33
17 -102 19 l-89 3 -1 28 c-1 23 5 31 41 48 67 32 88 70 88 157 0 63 2 72 18
72 34 0 57 20 57 48 0 51 -6 52 -261 52 -231 0 -238 -1 -253 -21z m309 -104
c52 -51 15 -135 -60 -135 -48 0 -75 29 -75 80 0 51 27 80 75 80 25 0 44 -8 60
-25z"/>
<path d="M9583 12638 c-19 -25 -21 -46 -7 -67 15 -20 23 -21 204 -21 177 0
190 1 200 19 14 27 13 47 -6 65 -13 13 -45 16 -198 16 -135 0 -186 -3 -193
-12z"/>
<path d="M17072 12638 c-7 -7 -12 -24 -12 -38 0 -47 11 -50 212 -50 175 0 188
1 198 19 14 27 13 47 -6 65 -13 13 -45 16 -198 16 -128 0 -186 -4 -194 -12z"/>
<path d="M9734 12520 c-83 -19 -134 -80 -134 -160 0 -53 21 -92 67 -127 32
-25 45 -28 108 -28 60 0 77 4 108 25 104 70 95 222 -15 273 -44 20 -96 27
-134 17z m91 -110 c44 -48 3 -128 -60 -116 -36 8 -55 30 -55 68 0 59 76 91
115 48z"/>
<path d="M17229 12521 c-150 -30 -190 -203 -68 -294 17 -12 49 -21 90 -24 54
-4 71 -1 109 19 131 71 111 250 -33 293 -28 8 -53 14 -56 14 -3 -1 -22 -4 -42
-8z m83 -108 c28 -25 24 -88 -7 -109 -30 -19 -81 -11 -95 16 -38 71 44 146
102 93z"/>
<path d="M7561 12508 c-18 -6 -22 -14 -19 -45 l3 -38 354 -3 c371 -2 381 -1
381 42 -1 52 6 51 -358 52 -186 0 -348 -3 -361 -8z"/>
<path d="M14246 12468 c-19 -10 -21 -59 -4 -76 17 -17 699 -17 716 0 14 14 15
47 2 68 -8 13 -59 15 -353 16 -193 1 -351 -3 -361 -8z"/>
<path d="M8722 12388 c-7 -7 -12 -24 -12 -38 0 -42 17 -50 107 -50 l83 0 0
-90 c0 -95 8 -110 59 -110 44 0 61 33 61 120 l0 80 93 0 c59 0 97 4 105 12 19
19 15 66 -7 78 -29 15 -473 14 -489 -2z"/>
<path d="M17986 12374 c-10 -26 -7 -62 6 -70 9 -6 170 -14 279 -14 18 0 19 -8
19 -115 0 -125 5 -135 64 -135 47 0 56 21 56 141 0 60 3 109 8 109 4 1 69 2
145 3 146 2 156 6 157 53 0 43 -7 44 -376 44 -312 0 -353 -2 -358 -16z"/>
<path d="M19933 12370 c-20 -8 -23 -16 -23 -70 l0 -60 -83 0 c-77 0 -85 -2
-94 -22 -6 -13 -7 -32 -3 -43 7 -19 18 -20 346 -25 186 -3 349 -3 362 -1 26 4
41 45 25 70 -8 12 -30 17 -92 19 l-81 3 0 60 c0 55 -2 60 -26 69 -28 11 -70 4
-81 -13 -3 -5 -7 -31 -9 -56 -1 -25 -3 -50 -3 -54 -1 -4 -33 -7 -73 -5 l-72 3
0 53 c-2 73 -32 96 -93 72z"/>
<path d="M6060 12350 c-19 -19 -20 -28 -14 -153 5 -96 11 -137 22 -149 13 -16
36 -18 199 -18 236 0 223 -10 223 174 0 142 -2 148 -51 159 -35 9 -69 -17 -69
-52 0 -36 -8 -39 -95 -36 -106 3 -102 2 -109 40 -5 26 -14 39 -32 45 -37 14
-52 12 -74 -10z m310 -200 l0 -30 -104 0 -103 0 1 30 1 30 103 0 102 0 0 -30z"/>
<path d="M7028 12356 c-81 -29 -122 -76 -134 -151 -6 -44 13 -104 44 -138 56
-62 187 -81 269 -39 110 57 136 184 56 273 -55 61 -154 84 -235 55z m136 -107
c20 -16 26 -29 26 -60 0 -55 -34 -89 -90 -89 -56 0 -90 34 -90 90 0 55 26 80
84 80 29 0 52 -7 70 -21z"/>
<path d="M7671 12348 c-10 -28 -3 -56 18 -67 9 -5 88 -9 175 -10 88 -1 163 -4
167 -7 5 -3 6 -11 2 -19 -4 -12 -34 -15 -169 -15 -204 0 -204 0 -204 -119 0
-74 2 -81 26 -100 25 -20 39 -21 248 -21 237 0 246 2 246 50 0 47 -11 50 -212
50 l-188 0 0 25 0 25 168 0 c206 0 207 0 207 115 0 118 6 115 -257 115 -217 0
-219 0 -227 -22z"/>
<path d="M15635 12356 c-16 -12 -18 -28 -18 -149 0 -188 -14 -177 220 -177
236 0 223 -10 223 174 0 142 -2 148 -51 159 -36 9 -69 -17 -69 -53 0 -33 -9
-37 -99 -39 -86 -2 -99 3 -107 45 -9 49 -59 69 -99 40z m305 -206 l0 -30 -100
0 -100 0 0 30 0 30 100 0 100 0 0 -30z"/>
<path d="M11110 12327 c-24 -12 -25 -16 -28 -134 -4 -171 -15 -163 233 -163
204 0 215 2 215 50 0 46 -13 50 -177 50 l-153 0 0 83 c0 51 -5 89 -12 99 -19
23 -50 29 -78 15z"/>
<path d="M12840 12332 c-33 -10 -40 -35 -40 -143 0 -92 3 -110 21 -133 l20
-26 199 0 c187 0 200 1 210 19 14 27 13 47 -6 65 -13 13 -43 16 -170 16 l-154
0 0 89 c0 59 -4 92 -12 98 -17 14 -50 21 -68 15z"/>
<path d="M14362 12323 c-5 -10 -8 -27 -6 -38 6 -40 30 -45 206 -45 145 0 167
-2 162 -15 -5 -12 -33 -15 -164 -15 -144 0 -160 -2 -184 -21 -24 -19 -26 -26
-26 -94 0 -68 2 -75 26 -94 25 -20 39 -21 248 -21 238 0 246 2 246 51 0 46 -1
46 -247 48 -126 1 -153 4 -153 15 0 12 30 15 170 18 207 4 205 2 205 114 -1
116 3 114 -261 114 -193 0 -214 -2 -222 -17z"/>
<path d="M16454 12326 c-3 -8 -4 -27 -2 -43 l3 -28 157 -3 157 -3 3 -117 3
-117 28 -9 c17 -6 37 -6 55 0 l27 9 3 142 c4 195 19 183 -233 183 -160 0 -197
-3 -201 -14z"/>
<path d="M20642 12215 c-83 -36 -49 -155 45 -155 45 0 83 37 83 82 -1 40 -17
64 -54 78 -34 12 -34 12 -74 -5z"/>
</g>
</svg>
